#!OML:ASF E:\acrobat2\Project_11_07_03\Capture day 1\Session 1\Acrobat.ASF
:FULLY-SPECIFIED
:DEGREES
645
root 11.1549 14.3088 -12.2116 186.076 -1.10387 -176.99
lowerback -8.14931 1.35668 2.01681
upperback -4.04794 1.34953 -1.75454
thorax 0.473589 0.490724 -2.83083
lowerneck 0.0610108 -2.92863 1.50432
upperneck -1.86523 -3.97586 4.70822
head -0.510955 -2.09034 1.21146
rclavicle 0 -2.38542e-014
rhumerus 81.2169 -35.1486 -44.0271
rradius 24.162
rwrist 10.4293
rhand -16.3573 320.952
rfingers 7.12502
rthumb 9.8554 -428.797
lclavicle 0 -2.38542e-014
lhumerus -34.3181 -9.03282 76.7278
lradius 11.4179
lwrist 4.94271
lhand -7.91457 -1.83707
lfingers 7.12502
lthumb 17.991 27.3508
rfemur 16.9717 45.7292 -7.30655
rtibia -4.92129
rfoot -59.1001 -23.0822
rtoes 11.2909
lfemur 12.3678 -50.5335 18.927
ltibia -9.00608
lfoot -61.3902 -21.0977
ltoes 54.0192
646
root 11.1555 14.3052 -12.2676 186.043 -1.037 -177.183
lowerback -8.46052 1.38831 1.92856
upperback -4.27799 1.35698 -1.8783
thorax 0.40852 0.474907 -2.90618
lowerneck 0.106962 -2.90518 1.69213
upperneck -1.73915 -3.94681 4.56059
head -0.486492 -2.07296 1.13312
rclavicle 6.65929e-015 -5.56597e-015
rhumerus 82.3591 -35.7956 -44.5879
rradius 24.4063
rwrist 9.70189
rhand -16.9199 320.652
rfingers 7.12502
rthumb 9.31264 -429.122
lclavicle 6.65929e-015 -5.56597e-015
lhumerus -34.8281 -7.84788 76.1507
lradius 11.2169
lwrist 4.82004
lhand -7.73222 -2.09039
lfingers 7.12502
lthumb 18.1665 27.0813
rfemur 17.504 45.929 -7.15434
rtibia -5.12243
rfoot -59.2925 -23.2239
rtoes 10.7159
lfemur 12.9894 -50.802 18.1405
ltibia -8.9836
lfoot -61.7924 -21.0589
ltoes 53.9265
647
root 11.1588 14.3013 -12.3118 186.032 -0.997537 -177.151
lowerback -8.5275 1.39683 2.01425
upperback -4.62697 1.31533 -1.92848
thorax 0.084567 0.4246 -3.01225
lowerneck 0.358138 -2.81566 1.6956
upperneck -1.67596 -3.82609 4.73385
head -0.507729 -2.01829 1.1901
rclavicle 3.37934e-015 1.35174e-014
rhumerus 84.1849 -36.1222 -46.2216
rradius 24.4046
rwrist 9.91024
rhand -17.2797 320.65
rfingers 7.12502
rthumb 8.96549 -429.139
lclavicle 3.37934e-015 1.35174e-014
lhumerus -35.3717 -6.38476 75.4147
lradius 10.9211
lwrist 4.56504
lhand -7.73362 -2.27662
lfingers 7.12502
lthumb 18.1651 26.8952
rfemur 17.8428 46.0559 -6.83879
rtibia -5.17177
rfoot -59.4254 -23.2302
rtoes 10.2792
lfemur 13.1847 -50.5255 18.0731
ltibia -8.98892
lfoot -61.6001 -20.8352
ltoes 53.7994
648
root 11.1664 14.2949 -12.3549 185.966 -0.949197 -177.021
lowerback -8.60884 1.42179 2.14144
upperback -4.90361 1.30011 -1.93943
thorax -0.1553 0.391954 -3.09783
lowerneck 0.40917 -2.60313 1.51617
upperneck -1.40997 -3.56356 5.18329
head -0.428424 -1.88951 1.35729
rclavicle 8.34896e-015 -1.51076e-014
rhumerus 86.2566 -36.3751 -48.1988
rradius 24.4168
rwrist 10.4396
rhand -17.4416 320.817
rfingers 7.12502
rthumb 8.80919 -428.979
lclavicle 8.34896e-015 -1.51076e-014
lhumerus -35.982 -5.28356 74.8918
lradius 10.8736
lwrist 4.71812
lhand -8.36302 -2.33676
lfingers 7.12502
lthumb 17.5595 26.8903
rfemur 18.4078 46.5438 -6.12999
rtibia -5.19082
rfoot -59.9743 -23.3456
rtoes 9.57286
lfemur 13.5212 -50.3913 18.0249
ltibia -9.04084
lfoot -61.4997 -20.7809
ltoes 53.7691
649
root 11.1713 14.2881 -12.4021 185.878 -0.879511 -176.896
lowerback -8.79605 1.48456 2.31424
upperback -5.09951 1.33669 -1.9734
thorax -0.248591 0.38923 -3.22652
lowerneck 0.368563 -2.49073 1.5991
upperneck -1.14276 -3.4307 5.23853
head -0.342524 -1.81874 1.35608
rclavicle -2.78299e-015 -1.59028e-015
rhumerus 87.3051 -36.8786 -48.7343
rradius 24.8035
rwrist 9.66094
rhand -17.6643 320.511
rfingers 7.12502
rthumb 8.59432 -429.294
lclavicle -2.78299e-015 -1.59028e-015
lhumerus -36.5479 -4.22943 74.3329
lradius 10.9399
lwrist 4.78782
lhand -9.51393 -2.44231
lfingers 7.12502
lthumb 16.4517 26.8801
rfemur 19.0039 46.9906 -5.44264
rtibia -5.32097
rfoot -60.4179 -23.6831
rtoes 8.52693
lfemur 14.1371 -50.551 17.6754
ltibia -9.10838
lfoot -61.6471 -21.0225
ltoes 53.8521
650
root 11.1769 14.2838 -12.4409 185.796 -0.859388 -176.644
lowerback -8.84827 1.54572 2.61263
upperback -5.33443 1.36302 -1.98607
thorax -0.45511 0.375636 -3.40713
lowerneck 0.46274 -2.51646 1.83209
upperneck -1.06075 -3.46693 5.1323
head -0.337737 -1.83754 1.28418
rclavicle -8.54774e-015 0
rhumerus 88.1525 -37.4793 -49.0078
rradius 25.1131
rwrist 8.50796
rhand -18.0918 320.213
rfingers 7.12502
rthumb 8.1817 -429.609
lclavicle -8.54774e-015 0
lhumerus -37.0855 -2.98034 73.5619
lradius 11.0006
lwrist 4.46231
lhand -10.9601 -2.67186
lfingers 7.12502
lthumb 15.0589 26.7604
rfemur 18.9705 46.22 -5.2891
rtibia -5.05011
rfoot -59.843 -22.2422
rtoes 10.35
lfemur 14.5195 -50.5077 17.699
ltibia -9.18216
lfoot -61.6585 -20.9707
ltoes 53.8179
651
root 11.1868 14.2798 -12.471 185.732 -0.819386 -176.468
lowerback -8.8544 1.58549 2.72267
upperback -5.54073 1.37942 -1.97625
thorax -0.662563 0.362792 -3.45923
lowerneck 0.49425 -2.55684 2.05215
upperneck -0.927036 -3.52823 5.04843
head -0.305802 -1.86708 1.22009
rclavicle -2.04748e-014 1.59028e-014
rhumerus 89.6525 -37.9534 -50.1062
rradius 25.2018
rwrist 7.90965
rhand -18.8703 320.408
rfingers 7.12502
rthumb 7.43034 -429.442
lclavicle -2.04748e-014 1.59028e-014
lhumerus -37.5489 -1.54245 72.7004
lradius 11.0242
lwrist 3.8196
lhand -12.6422 -2.97325
lfingers 7.12502
lthumb 13.4381 26.5733
rfemur 19.1805 46.4168 -4.84176
rtibia -5.017
rfoot -59.9324 -22.4949
rtoes 9.51564
lfemur 14.7575 -50.4551 17.7718
ltibia -9.19941
lfoot -61.7944 -20.4432
ltoes 53.5718
652
root 11.1957 14.2764 -12.4986 185.643 -0.720922 -176.418
lowerback -8.90393 1.61771 2.69058
upperback -5.67293 1.4025 -1.97618
thorax -0.771579 0.362354 -3.43938
lowerneck 0.807495 -2.6092 2.04379
upperneck -1.30691 -3.56755 5.02531
head -0.474157 -1.90009 1.22507
rclavicle -7.55382e-015 9.54166e-015
rhumerus 91.368 -38.2516 -51.4546
rradius 25.2514
rwrist 7.32397
rhand -19.4716 320.649
rfingers 7.12502
rthumb 6.8499 -429.22
lclavicle -7.55382e-015 9.54166e-015
lhumerus -37.8548 0.284694 71.6251
lradius 10.8961
lwrist 2.74027
lhand -14.2131 -3.2392
lfingers 7.12502
lthumb 11.9236 26.4012
rfemur 19.1837 46.3228 -4.75724
rtibia -4.88413
rfoot -59.6673 -22.4894
rtoes 8.98369
lfemur 14.925 -50.1717 17.7751
ltibia -9.17215
lfoot -61.6017 -20.0436
ltoes 53.3709
653
root 11.1984 14.2753 -12.5293 185.469 -0.722681 -176.379
lowerback -8.86396 1.62334 2.76336
upperback -5.80577 1.38677 -2.01908
thorax -0.930471 0.339096 -3.52809
lowerneck 1.05574 -2.55648 2.03403
upperneck -1.46575 -3.48581 5.1762
head -0.563454 -1.87089 1.28032
rclavicle 1.25234e-014 -1.11319e-014
rhumerus 93.0566 -38.4532 -52.8997
rradius 25.3435
rwrist 6.62003
rhand -19.6743 320.739
rfingers 7.12502
rthumb 6.65425 -429.137
lclavicle 1.25234e-014 -1.11319e-014
lhumerus -38.1161 1.61 70.7644
lradius 10.7302
lwrist 2.26474
lhand -15.3623 -3.49616
lfingers 7.12502
lthumb 10.8153 26.2054
rfemur 19.7022 46.5213 -4.2318
rtibia -4.83843
rfoot -59.9116 -22.4235
rtoes 9.02061
lfemur 15.1274 -49.8357 17.7298
ltibia -9.17948
lfoot -61.2711 -19.5586
ltoes 53.1774
654
root 11.1965 14.2738 -12.5647 185.306 -0.680482 -176.424
lowerback -8.83602 1.663 2.83878
upperback -5.95355 1.41148 -2.133
thorax -1.09358 0.332293 -3.6889
lowerneck 1.14786 -2.50313 2.093
upperneck -1.41417 -3.42074 5.33062
head -0.562622 -1.8442 1.31941
rclavicle 8.54774e-015 -2.62396e-014
rhumerus 94.4419 -38.7577 -54.0969
rradius 25.5463
rwrist 5.89252
rhand -20.17 320.83
rfingers 7.12502
rthumb 6.17573 -429.06
lclavicle 8.54774e-015 -2.62396e-014
lhumerus -38.4218 2.06534 70.3389
lradius 10.6873
lwrist 2.87191
lhand -16.1764 -4.1198
lfingers 7.12502
lthumb 10.03 25.6212
rfemur 20.1857 46.6351 -3.91561
rtibia -4.90533
rfoot -60.0098 -22.4554
rtoes 8.79483
lfemur 15.706 -50.0003 17.1662
ltibia -9.16913
lfoot -61.6249 -18.8838
ltoes 52.7752
655
root 11.1972 14.2719 -12.6001 185.176 -0.594172 -176.445
lowerback -8.8745 1.72731 2.90418
upperback -6.0861 1.46809 -2.23453
thorax -1.20207 0.342873 -3.82762
lowerneck 1.29719 -2.48548 2.02566
upperneck -1.4183 -3.4016 5.59757
head -0.584306 -1.84403 1.41752
rclavicle -8.34896e-015 -3.97569e-015
rhumerus 95.7608 -39.0418 -55.3595
rradius 25.8674
rwrist 5.55376
rhand -20.4581 320.946
rfingers 7.12502
rthumb 5.89753 -428.952
lclavicle -8.34896e-015 -3.97569e-015
lhumerus -38.7617 2.6329 69.8185
lradius 10.7823
lwrist 3.36396
lhand -16.6605 -4.71914
lfingers 7.12502
lthumb 9.56295 25.0438
rfemur 20.354 46.4902 -3.86902
rtibia -4.91674
rfoot -59.7188 -22.5129
rtoes 8.25538
lfemur 16.2484 -50.1337 16.6491
ltibia -9.1181
lfoot -61.9061 -18.4384
ltoes 52.4032
656
root 11.203 14.2699 -12.6368 185.005 -0.671253 -176.472
lowerback -8.9572 1.71761 2.85478
upperback -6.1719 1.43912 -2.2765
thorax -1.24886 0.319408 -3.84524
lowerneck 1.27787 -2.49538 1.952
upperneck -1.21064 -3.4339 5.76709
head -0.51243 -1.85842 1.48044
rclavicle 2.5842e-015 -1.66979e-014
rhumerus 97.3808 -39.067 -56.989
rradius 26.1592
rwrist 5.48194
rhand -20.7974 320.942
rfingers 7.12502
rthumb 5.56996 -428.965
lclavicle 2.5842e-015 -1.66979e-014
lhumerus -39.0511 3.52283 69.1576
lradius 10.8473
lwrist 3.38427
lhand -17.0131 -4.85995
lfingers 7.12502
lthumb 9.22266 24.9184
rfemur 20.8646 46.45 -3.47796
rtibia -4.9114
rfoot -59.691 -22.7126
rtoes 7.73089
lfemur 16.5511 -50.1095 16.3789
ltibia -9.09726
lfoot -61.8445 -18.0895
ltoes 52.1835
657
root 11.2102 14.2688 -12.6663 184.857 -0.715106 -176.492
lowerback -9.02126 1.70844 2.749
upperback -6.25978 1.41599 -2.27889
thorax -1.30959 0.301351 -3.78948
lowerneck 1.12512 -2.50452 1.91924
upperneck -0.842918 -3.47528 5.81743
head -0.371017 -1.8681 1.49431
rclavicle -7.35503e-015 -1.66979e-014
rhumerus 98.5669 -39.2222 -57.8042
rradius 26.3396
rwrist 4.66355
rhand -21.5118 320.932
rfingers 7.12502
rthumb 4.88016 -428.992
lclavicle -7.35503e-015 -1.66979e-014
lhumerus -39.3181 4.02269 68.8087
lradius 10.9369
lwrist 3.97161
lhand -17.4695 -4.97331
lfingers 7.12502
lthumb 8.78231 24.824
rfemur 21.3816 46.6444 -2.99904
rtibia -4.86733
rfoot -59.8899 -22.9754
rtoes 7.32442
lfemur 16.7435 -49.9532 16.2431
ltibia -9.09657
lfoot -61.5807 -18.0864
ltoes 52.2694
658
root 11.2149 14.2723 -12.6873 184.711 -0.709645 -176.446
lowerback -9.00709 1.72268 2.72454
upperback -6.33914 1.42514 -2.26569
thorax -1.40015 0.299123 -3.76196
lowerneck 1.18017 -2.51151 1.92379
upperneck -0.725687 -3.4901 5.82459
head -0.343691 -1.87379 1.49534
rclavicle 3.97569e-015 -7.95139e-015
rhumerus 99.7011 -39.4515 -58.5679
rradius 26.533
rwrist 4.00065
rhand -21.6618 320.901
rfingers 7.12502
rthumb 4.73537 -429.026
lclavicle 3.97569e-015 -7.95139e-015
lhumerus -39.528 3.94732 68.8639
lradius 11.0831
lwrist 5.32005
lhand -18.131 -5.49328
lfingers 7.12502
lthumb 8.14389 24.3298
rfemur 21.8302 46.9749 -2.43867
rtibia -4.74982
rfoot -60.2188 -23.0592
rtoes 7.26006
lfemur 16.8811 -49.7237 16.2257
ltibia -9.07192
lfoot -61.2535 -18.2144
ltoes 52.44
